<mxfile host="app.diagrams.net" modified="2021-01-21T08:44:12.050Z" agent="5.0 (Windows NT 10.0; Win64; x64) AppleWebKit/537.36 (KHTML, like Gecko) Chrome/87.0.4280.141 Safari/537.36 Edg/87.0.664.75" etag="JakSGc_RTsuW87F_Hu1F" version="14.2.3" type="github">
  <diagram id="NZmnoHppKEA7yZiFLUxY" name="Page-1">
    <mxGraphModel dx="1038" dy="580" grid="1" gridSize="10" guides="1" tooltips="1" connect="1" arrows="1" fold="1" page="1" pageScale="1" pageWidth="827" pageHeight="1169" math="0" shadow="0">
      <root>
        <mxCell id="0" />
        <mxCell id="1" parent="0" />
        <mxCell id="kOJkTiRPp7qeT44bq7To-1" value="ACK" style="rounded=0;whiteSpace=wrap;html=1;align=center;fillColor=#bac8d3;strokeColor=#23445d;" parent="1" vertex="1">
          <mxGeometry x="460" y="70" width="40" height="40" as="geometry" />
        </mxCell>
        <mxCell id="kOJkTiRPp7qeT44bq7To-2" value="CRC" style="rounded=0;whiteSpace=wrap;html=1;" parent="1" vertex="1">
          <mxGeometry x="410" y="70" width="50" height="40" as="geometry" />
        </mxCell>
        <mxCell id="kOJkTiRPp7qeT44bq7To-3" value="Data Field" style="rounded=0;whiteSpace=wrap;html=1;fillColor=#b1ddf0;strokeColor=#10739e;" parent="1" vertex="1">
          <mxGeometry x="330" y="70" width="80" height="40" as="geometry" />
        </mxCell>
        <mxCell id="kOJkTiRPp7qeT44bq7To-4" value="DLC" style="rounded=0;whiteSpace=wrap;html=1;" parent="1" vertex="1">
          <mxGeometry x="290" y="70" width="40" height="40" as="geometry" />
        </mxCell>
        <mxCell id="kOJkTiRPp7qeT44bq7To-5" value="IDE" style="rounded=0;whiteSpace=wrap;html=1;" parent="1" vertex="1">
          <mxGeometry x="250" y="70" width="40" height="40" as="geometry" />
        </mxCell>
        <mxCell id="kOJkTiRPp7qeT44bq7To-6" value="RTR" style="rounded=0;whiteSpace=wrap;html=1;" parent="1" vertex="1">
          <mxGeometry x="210" y="70" width="40" height="40" as="geometry" />
        </mxCell>
        <mxCell id="kOJkTiRPp7qeT44bq7To-7" value="Identifier" style="rounded=0;whiteSpace=wrap;html=1;fillColor=#fad9d5;strokeColor=#ae4132;" parent="1" vertex="1">
          <mxGeometry x="140" y="70" width="70" height="40" as="geometry" />
        </mxCell>
        <mxCell id="kOJkTiRPp7qeT44bq7To-8" value="SOF" style="rounded=0;whiteSpace=wrap;html=1;fillColor=#bac8d3;strokeColor=#23445d;" parent="1" vertex="1">
          <mxGeometry x="100" y="70" width="40" height="40" as="geometry" />
        </mxCell>
        <mxCell id="kOJkTiRPp7qeT44bq7To-9" value="EOF" style="rounded=0;whiteSpace=wrap;html=1;fillColor=#bac8d3;strokeColor=#23445d;" parent="1" vertex="1">
          <mxGeometry x="500" y="70" width="40" height="40" as="geometry" />
        </mxCell>
        <mxCell id="kOJkTiRPp7qeT44bq7To-10" value="RTR" style="rounded=0;whiteSpace=wrap;html=1;fillColor=#bac8d3;strokeColor=#23445d;" parent="1" vertex="1">
          <mxGeometry x="210" y="70" width="40" height="40" as="geometry" />
        </mxCell>
        <mxCell id="kOJkTiRPp7qeT44bq7To-11" value="IDE" style="rounded=0;whiteSpace=wrap;html=1;fillColor=#bac8d3;strokeColor=#23445d;" parent="1" vertex="1">
          <mxGeometry x="250" y="70" width="40" height="40" as="geometry" />
        </mxCell>
        <mxCell id="kOJkTiRPp7qeT44bq7To-12" value="DLC" style="rounded=0;whiteSpace=wrap;html=1;fillColor=#bac8d3;strokeColor=#23445d;" parent="1" vertex="1">
          <mxGeometry x="290" y="70" width="40" height="40" as="geometry" />
        </mxCell>
        <mxCell id="kOJkTiRPp7qeT44bq7To-13" value="CRC" style="rounded=0;whiteSpace=wrap;html=1;fillColor=#bac8d3;strokeColor=#23445d;" parent="1" vertex="1">
          <mxGeometry x="410" y="70" width="50" height="40" as="geometry" />
        </mxCell>
        <mxCell id="kOJkTiRPp7qeT44bq7To-14" value="图2-1" style="text;html=1;align=center;verticalAlign=middle;resizable=0;points=[];autosize=1;" parent="1" vertex="1">
          <mxGeometry x="300" y="130" width="50" height="20" as="geometry" />
        </mxCell>
        <mxCell id="ySkVc8_IrI0fRccdwOmt-1" value="附近的攻击者" style="rounded=1;whiteSpace=wrap;html=1;" vertex="1" parent="1">
          <mxGeometry x="100" y="180" width="100" height="40" as="geometry" />
        </mxCell>
        <mxCell id="ySkVc8_IrI0fRccdwOmt-2" value="OBD-|| 加密狗" style="rounded=1;whiteSpace=wrap;html=1;" vertex="1" parent="1">
          <mxGeometry x="270" y="180" width="100" height="40" as="geometry" />
        </mxCell>
        <mxCell id="ySkVc8_IrI0fRccdwOmt-3" value="目标车辆" style="rounded=1;whiteSpace=wrap;html=1;" vertex="1" parent="1">
          <mxGeometry x="440" y="180" width="100" height="40" as="geometry" />
        </mxCell>
        <mxCell id="ySkVc8_IrI0fRccdwOmt-4" value="" style="endArrow=none;html=1;entryX=0.5;entryY=1;entryDx=0;entryDy=0;" edge="1" parent="1" target="ySkVc8_IrI0fRccdwOmt-1">
          <mxGeometry width="50" height="50" relative="1" as="geometry">
            <mxPoint x="150" y="440" as="sourcePoint" />
            <mxPoint x="180" y="270" as="targetPoint" />
          </mxGeometry>
        </mxCell>
        <mxCell id="ySkVc8_IrI0fRccdwOmt-5" value="" style="endArrow=none;html=1;entryX=0.5;entryY=1;entryDx=0;entryDy=0;" edge="1" parent="1">
          <mxGeometry width="50" height="50" relative="1" as="geometry">
            <mxPoint x="489.5" y="440" as="sourcePoint" />
            <mxPoint x="489.5" y="220" as="targetPoint" />
          </mxGeometry>
        </mxCell>
        <mxCell id="ySkVc8_IrI0fRccdwOmt-6" value="" style="endArrow=none;html=1;entryX=0.5;entryY=1;entryDx=0;entryDy=0;" edge="1" parent="1">
          <mxGeometry width="50" height="50" relative="1" as="geometry">
            <mxPoint x="319.5" y="440" as="sourcePoint" />
            <mxPoint x="319.5" y="220" as="targetPoint" />
          </mxGeometry>
        </mxCell>
        <mxCell id="ySkVc8_IrI0fRccdwOmt-7" value="" style="endArrow=classic;html=1;" edge="1" parent="1">
          <mxGeometry width="50" height="50" relative="1" as="geometry">
            <mxPoint x="320" y="260" as="sourcePoint" />
            <mxPoint x="150" y="260" as="targetPoint" />
          </mxGeometry>
        </mxCell>
        <mxCell id="ySkVc8_IrI0fRccdwOmt-8" value="&lt;b&gt;1. 广播信息&lt;/b&gt;" style="text;html=1;align=center;verticalAlign=middle;resizable=0;points=[];autosize=1;" vertex="1" parent="1">
          <mxGeometry x="190" y="240" width="80" height="20" as="geometry" />
        </mxCell>
        <mxCell id="ySkVc8_IrI0fRccdwOmt-9" value="" style="endArrow=classic;html=1;" edge="1" parent="1">
          <mxGeometry width="50" height="50" relative="1" as="geometry">
            <mxPoint x="150" y="310" as="sourcePoint" />
            <mxPoint x="320" y="310" as="targetPoint" />
          </mxGeometry>
        </mxCell>
        <mxCell id="ySkVc8_IrI0fRccdwOmt-10" value="" style="endArrow=classic;html=1;" edge="1" parent="1">
          <mxGeometry width="50" height="50" relative="1" as="geometry">
            <mxPoint x="150" y="360" as="sourcePoint" />
            <mxPoint x="320" y="360" as="targetPoint" />
          </mxGeometry>
        </mxCell>
        <mxCell id="ySkVc8_IrI0fRccdwOmt-11" value="" style="endArrow=classic;html=1;" edge="1" parent="1">
          <mxGeometry width="50" height="50" relative="1" as="geometry">
            <mxPoint x="320" y="400" as="sourcePoint" />
            <mxPoint x="490" y="400" as="targetPoint" />
          </mxGeometry>
        </mxCell>
        <mxCell id="ySkVc8_IrI0fRccdwOmt-12" value="&lt;b&gt;2. 建立连接&lt;/b&gt;" style="text;html=1;align=center;verticalAlign=middle;resizable=0;points=[];autosize=1;" vertex="1" parent="1">
          <mxGeometry x="190" y="290" width="80" height="20" as="geometry" />
        </mxCell>
        <mxCell id="ySkVc8_IrI0fRccdwOmt-13" value="&lt;b&gt;3. 注入消息&lt;/b&gt;" style="text;html=1;align=center;verticalAlign=middle;resizable=0;points=[];autosize=1;" vertex="1" parent="1">
          <mxGeometry x="190" y="340" width="80" height="20" as="geometry" />
        </mxCell>
        <mxCell id="ySkVc8_IrI0fRccdwOmt-14" value="&lt;b&gt;消息中继给 CAN 总线&lt;/b&gt;" style="text;html=1;align=center;verticalAlign=middle;resizable=0;points=[];autosize=1;" vertex="1" parent="1">
          <mxGeometry x="345" y="370" width="130" height="20" as="geometry" />
        </mxCell>
        <mxCell id="ySkVc8_IrI0fRccdwOmt-15" value="图3-1" style="text;html=1;align=center;verticalAlign=middle;resizable=0;points=[];autosize=1;" vertex="1" parent="1">
          <mxGeometry x="295" y="460" width="50" height="20" as="geometry" />
        </mxCell>
      </root>
    </mxGraphModel>
  </diagram>
</mxfile>
